
<svg xmlns="http://www.w3.org/2000/svg" width="24" height="24" viewBox="0 0 24 24" data-id="IcSystemImgPlaceholderBroken"><g fill="none" fill-rule="evenodd"><rect width="24" height="24"></rect><path stroke="#687176" stroke-linecap="round" stroke-linejoin="round" stroke-width="2" d="M5.8458278,3 L18.1541722,3 C19.4914503,3 19.9763797,3.13923842 20.4652686,3.40069906 C20.9541574,3.66215969 21.3378403,4.04584256 21.5993009,4.53473144 C21.8607616,5.02362033 22,5.50854969 22,6.8458278 L22,17.1541722 C22,18.4914503 21.8607616,18.9763797 21.5993009,19.4652686 C21.3378403,19.9541574 20.9541574,20.3378403 20.4652686,20.5993009 C19.9763797,20.8607616 19.4914503,21 18.1541722,21 L5.8458278,21 C4.50854969,21 4.02362033,20.8607616 3.53473144,20.5993009 C3.04584256,20.3378403 2.66215969,19.9541574 2.40069906,19.4652686 C2.13923842,18.9763797 2,18.4914503 2,17.1541722 L2,6.8458278 C2,5.50854969 2.13923842,5.02362033 2.40069906,4.53473144 C2.66215969,4.04584256 3.04584256,3.66215969 3.53473144,3.40069906 C4.02362033,3.13923842 4.50854969,3 5.8458278,3 Z M2,18 L2,17.6925824 C2,16.0663554 2.99008611,14.6039656 4.5,14 L4.5,14 C6.04507009,13.381972 7.80311654,13.6424932 9.10255362,14.6820429 L10.1517628,15.5214103 C11.0142867,16.2114294 12.2728715,16.0715866 12.9628906,15.2090628 C13.0327484,15.1217405 13.0951594,15.028713 13.1494675,14.9309585 L14.9111708,11.7598926 C15.6403557,10.4473597 17.295495,9.97446279 18.6080279,10.7036477 C18.9607667,10.8996137 19.2654595,11.1716433 19.5,11.5 L20.2562854,12.5587996 C21.3903566,14.1464992 22,16.0488702 22,18 L22,18 C22,19.6568542 20.6568542,21 19,21 L5,21 C3.34314575,21 2,19.6568542 2,18 Z"></path><rect width="2" height="2" x="6" y="7" stroke="#687176" stroke-linecap="round" stroke-linejoin="round" stroke-width="2" rx="1"></rect><path stroke="#FFF" stroke-linecap="round" stroke-linejoin="round" stroke-width="2" d="M3.49710678,21.4971068 L21.4971068,3.49710678 C21.7732492,3.22096441 21.7732492,2.77324916 21.4971068,2.49710678 L21.4971068,2.49710678 C21.2209644,2.22096441 20.7732492,2.22096441 20.4971068,2.49710678 L2.49710678,20.4971068 C2.22096441,20.7732492 2.22096441,21.2209644 2.49710678,21.4971068 L2.49710678,21.4971068 C2.77324916,21.7732492 3.22096441,21.7732492 3.49710678,21.4971068 Z"></path><path stroke="#687176" stroke-linecap="round" stroke-linejoin="round" stroke-width="2" d="M3,21 L21,3"></path></g></svg>